<svg xmlns="http://www.w3.org/2000/svg" data-name="Layer 1" viewBox="0 0 1441 810"><path fill="none" d="M190.913 214.349h1059.173v381.302H190.913z" data-name="300x108"/><g data-name="300x1081"><path d="M568.674 356.563a36.888 36.888 0 0 0 36.777 37h63.2a2.22 2.22 0 0 0 2.538-2.45v-26.152c0-1.555-.895-2.332-2.538-2.332h-45.58q-16.589 0-16.589-16.572V329.35c0-3.033 1.494-4.543 4.335-4.543h45.876c1.644 0 2.393-.776 2.393-2.324v-26.159c0-1.568-.749-2.345-2.393-2.345h-45.876c-2.841 0-4.335-1.509-4.335-4.544V260.6a3.9 3.9 0 0 1 4.335-4.44h54.992c1.644 0 2.391-.776 2.391-2.324v-26.164c0-1.643-.747-2.45-2.391-2.45h-94.743c-1.643 0-2.392.807-2.392 2.45Zm-3.436 0V227.672q0-5.849 5.828-5.842h94.743q5.827 0 5.827 5.842v26.153q0 5.826-5.827 5.827h-54.992a.926.926 0 0 0-1.04.8 1.013 1.013 0 0 0-.008.146v28.84a.975.975 0 0 0 .9 1.046.939.939 0 0 0 .15 0h45.876q5.827 0 5.829 5.843v26.158q0 5.826-5.829 5.827h-45.878a.973.973 0 0 0-1.047.895 1.087 1.087 0 0 0 0 .151v16.7c0 8.712 4.483 13.075 13.3 13.075h45.58q5.827 0 5.827 5.829v26.152q0 5.851-5.827 5.844h-63.064a40.386 40.386 0 0 1-40.342-40.393ZM731.259 393.562h79.652c1.644 0 2.389-.806 2.389-2.45v-26.151c0-1.555-.745-2.332-2.389-2.332h-73.073q-5.827 0-5.827-5.842V227.672c0-1.643-.749-2.45-2.392-2.45h-33.474c-1.345 0-1.942.807-1.942 2.45v128.891a37.143 37.143 0 0 0 37.056 36.999Zm0 3.394a40.635 40.635 0 0 1-40.5-40.393V227.672q0-5.849 5.379-5.842h33.473q5.83 0 5.829 5.842v129.115c0 1.569.747 2.346 2.391 2.346h73.076q5.826 0 5.826 5.828v26.151q0 5.851-5.826 5.844ZM869.493 227.672c0-1.643-.747-2.45-2.393-2.45h-33.025c-1.643 0-2.391.807-2.391 2.45v163.44c0 1.644.748 2.45 2.391 2.45H867.1c1.646 0 2.393-.806 2.393-2.45Zm3.436 163.44q0 5.851-5.829 5.844h-33.025q-5.827 0-5.827-5.844v-163.44q0-5.849 5.827-5.842H867.1q5.83 0 5.829 5.842ZM924.186 260.6v130.512a2.222 2.222 0 0 0 2.542 2.45h33.025c1.494 0 2.241-.806 2.241-2.45V260.6a3.944 3.944 0 0 1 4.483-4.44h29.291c1.644 0 2.539-.732 2.539-2.211v-26.277a2.223 2.223 0 0 0-2.539-2.45h-105.5c-1.643 0-2.392.807-2.392 2.45v26.272c0 1.479.749 2.211 2.392 2.211h29.587a3.9 3.9 0 0 1 4.335 4.44Zm-3.287 0a.923.923 0 0 0-1.046-.943h-29.589q-5.831 0-5.828-5.708v-26.277q0-5.849 5.828-5.842h105.5q5.827 0 5.826 5.842v26.272q0 5.717-5.826 5.708h-29.287c-.746 0-1.046.313-1.046.943v130.517c0 3.9-1.943 5.844-5.678 5.844h-33.025q-5.83 0-5.829-5.844ZM1017.285 356.563a37.144 37.144 0 0 0 37.062 37h62.919a2.22 2.22 0 0 0 2.538-2.45v-26.152c0-1.555-.894-2.332-2.538-2.332h-45.584q-16.589 0-16.588-16.572V329.35a3.985 3.985 0 0 1 4.482-4.543h45.729c1.643 0 2.39-.776 2.39-2.324v-26.159c0-1.568-.747-2.345-2.39-2.345h-45.729a3.984 3.984 0 0 1-4.482-4.544V260.6a3.944 3.944 0 0 1 4.482-4.44h54.994q2.241 0 2.241-2.324v-26.164c0-1.643-.747-2.45-2.241-2.45h-94.892c-1.644 0-2.393.807-2.393 2.45Zm-3.436 0V227.672q0-5.849 5.829-5.842h94.892q5.828 0 5.827 5.842v26.153q0 5.826-5.827 5.827h-54.994c-.745 0-1.046.313-1.046.943v28.84a.911.911 0 0 0 .749 1.046.925.925 0 0 0 .3 0h45.729q5.826 0 5.829 5.843v26.158q0 5.826-5.829 5.827h-45.729a.909.909 0 0 0-1.046.749.925.925 0 0 0 0 .3v16.7c0 8.712 4.335 13.075 13.152 13.075h45.579c3.883 0 5.977 1.942 5.977 5.829v26.152c0 3.9-2.092 5.844-5.977 5.844h-62.919a40.642 40.642 0 0 1-40.5-40.393ZM802.2 477.539q.213-3.6 4.3-3.6h58.151q2.146 0 2.148-1.891v-21.206q0-1.992-2.148-1.992h-63.312a37.76 37.76 0 0 0-25.069 8.8q-10.314 8.823-10.314 21.218v76.521q0 12.4 10.311 21.212a37.745 37.745 0 0 0 25.068 8.8h63.31c1.431 0 2.148-.654 2.148-1.992v-21.2q0-1.893-2.148-1.891H806.5q-4.084 0-4.3-3.6Zm3.154 79.163c0 .509.43.763 1.147.763h58.152q5.584 0 5.586 4.728v21.212q0 4.746-5.586 4.74h-63.314a41.086 41.086 0 0 1-27.356-9.612c-7.592-6.412-11.316-14.122-11.316-23.151v-76.515c0-9.019 3.724-16.739 11.316-23.152a41.086 41.086 0 0 1 27.356-9.612h63.309q5.586 0 5.587 4.739v21.219q0 4.73-5.587 4.728H806.5c-.717 0-1.147.254-1.147.763ZM922.944 448.855h-31.513c-1.575 0-2.291.654-2.291 1.992v104.546q0 12.4 10.313 21.212a38.471 38.471 0 0 0 25.638 8.8h33.518a37.737 37.737 0 0 0 25.068-8.8q10.314-8.819 10.313-21.212V450.842c0-1.328-.717-1.992-2.292-1.992h-31.5c-1.575 0-2.437.654-2.437 1.992v99.709c0 6.509-3.724 9.758-11.455 9.758h-9.455c-7.59 0-11.455-3.249-11.455-9.758v-99.709c-.018-1.333-.876-1.987-2.452-1.987Zm0-2.752c3.722 0 5.728 1.575 5.728 4.739v99.709q0 6.927 8.164 6.921h9.455c5.44 0 8.3-2.3 8.3-6.921v-99.709q0-4.746 5.586-4.739h31.51q5.586 0 5.586 4.739v104.546c0 9.03-3.724 16.74-11.315 23.151a41.085 41.085 0 0 1-27.356 9.613h-33.518a41.813 41.813 0 0 1-27.928-9.613c-7.449-6.411-11.318-14.121-11.318-23.151V450.842q0-4.746 5.587-4.739ZM1056.722 475.363c-.717 0-1 .292-1 .861v34.933c0 .57.287.862 1 .862h17.764q6.016 0 6.016-5.117v-26.423q0-5.109-6.016-5.116Zm63.165 3.5q0-12.4-10.312-21.213a37.488 37.488 0 0 0-25.069-8.8h-65.876c-1.575 0-2.435.654-2.435 1.992v132.57c0 1.328.86 1.992 2.435 1.992h31.513c1.576 0 2.289-.654 2.289-1.992V542.6q0-3.69 4.3-3.7h27.786a37.575 37.575 0 0 0 25.069-8.752q10.313-8.764 10.312-21.164Zm-63.165-6.34h17.764c6.159 0 9.167 2.657 9.167 7.952V506.9c0 5.238-3.008 7.856-9.167 7.856h-17.764q-4.3 0-4.3-3.6v-34.932c.002-2.473 1.435-3.697 4.3-3.697Zm66.461 36.46c0 9.018-3.726 16.74-11.317 23.153a41.144 41.144 0 0 1-27.358 9.612h-27.786c-.717 0-1 .277-1 .848v40.812q0 4.746-5.583 4.74h-31.5q-5.586 0-5.586-4.74V450.842q0-4.746 5.586-4.739h65.886a41.08 41.08 0 0 1 27.358 9.612c7.592 6.413 11.317 14.133 11.317 23.152Z"/><ellipse cx="442.75" cy="310.965" rx="77.205" ry="85.991"/><path d="M457.058 225.327q3.486-.35 7.07-.352c42.875 0 77.695 38.532 77.695 86s-34.812 86-77.687 86a70.73 70.73 0 0 1-7.07-.354c39.568-3.958 69.736-40.816 69.736-85.637s-30.176-81.696-69.744-85.657Z"/><path d="M326.366 261.49c-2.673.351-51.543 191.75 116.858 259.251 164.122 65.785 230.876 83.109 272.356 35.38 38.559-44.363 52-85.307-1.66-108.715-66.625-23.157-197.3-14.887-277.156-30.822-52.564-10.491-98.523-40.596-110.398-155.094Z"/><path fill="#e53116" d="M615.648 431.505v147.78c7.676 1.494 14.875 2.573 21.653 3.227V433.31q-10.619-1.01-21.653-1.805ZM479.1 422.661v112.273q10.974 4.274 21.293 8.188V424.561q-10.873-.848-21.293-1.9Z"/><path d="m500.665 424.581-.273-.022v118.556l.372.141 3.282 1.239.347.131V424.868Z"/><path fill="#e53116" d="M504.393 424.868v119.764q11.142 4.2 21.547 7.957v-126.28c-7.263-.442-14.461-.915-21.547-1.441Z"/><path fill="#fff" d="M526.047 426.315v126.314q10.812 3.9 20.861 7.33V427.5a2744.41 2744.41 0 0 1-20.861-1.185Z"/><path fill="#e53116" d="M436.288 416.486v101.35q3.407 1.494 6.941 2.9 7.044 2.823 13.83 5.519V420.01c-7.059-1-13.844-2.133-20.293-3.421-.16-.039-.316-.067-.478-.103Z"/><path fill="#fff" d="M457.059 420v106.253q11.334 4.5 22.04 8.674V422.661c-7.58-.776-14.948-1.651-22.04-2.661Z"/><path fill="#02943f" d="M546.908 427.5v132.459q10.91 3.719 20.968 6.856v-138.2c-6.986-.372-13.992-.736-20.968-1.115Z"/><path fill="#fff" d="M571.983 428.837v139.245q10.918 3.332 20.861 5.947V430q-10.369-.6-20.861-1.163Z"/><path fill="#01509d" d="M592.844 430v144.029q12.06 3.153 22.8 5.256v-147.78a1799.01 1799.01 0 0 0-22.8-1.505Z"/><path fill="#e53116" stroke="#fff" stroke-linecap="round" stroke-linejoin="round" stroke-width="4.98" d="M620.567 458.016h-29.59c-3.819 19.9.235 34.216 14.675 38.9 14.057-4.377 18.615-19.016 14.915-38.9Z"/><path fill="#fff" d="M604.208 465.44v-.053a12.3 12.3 0 0 0-1.194-5.434h5.014a10.8 10.8 0 0 0-1.194 5.409v.078h2.889a5.811 5.811 0 0 0 3.128-.953v4.773a6.73 6.73 0 0 0-3.155-.717h-2.863v3.557h3.717a7.949 7.949 0 0 0 3.732-.953v4.773a9.259 9.259 0 0 0-3.76-.718h-3.689v7.665h-2.625V475.2h-3.877a9.259 9.259 0 0 0-3.76.718v-4.773a7.949 7.949 0 0 0 3.732.953h3.9v-3.553h-3.051a6.733 6.733 0 0 0-3.155.717v-4.773a5.819 5.819 0 0 0 3.128.953Z"/><path fill="#01509d" d="M594.408 487.766a4.755 4.755 0 0 1 4.2-4.463 3.849 3.849 0 0 1 3 1.589 4.57 4.57 0 0 1 4.029-3.782 4.483 4.483 0 0 1 3.945 3.487 4.087 4.087 0 0 1 2.956-1.295 4.513 4.513 0 0 1 4.288 4.708v.156a19.573 19.573 0 0 1-11.063 8.32 19.918 19.918 0 0 1-11.355-8.72Z"/></g></svg>