<?xml version="1.0" encoding="UTF-8"?>
<svg id="Réteg_2" data-name="Réteg 2" xmlns="http://www.w3.org/2000/svg" viewBox="0 0 204.47 42.91">
  <defs>
    <style>
      .cls-1 {
        fill: #13120d;
      }

      .cls-2 {
        fill: #fdc300;
      }
    </style>
  </defs>
  <g id="Layer_1" data-name="Layer 1">
    <g>
      <path class="cls-1" d="M22.59,15.56c0-1.73-.45-3.49-1.36-5.3-.9-1.81-2.33-2.71-4.27-2.71H6.28V0H0v34.93h6.28V11.06h6.91c1.34.02,2.19.57,2.56,1.67.37,1.1.55,2.47.55,4.11v5.53h.03v12.57h6.28v-17.34h-.03v-2.04Z"/>
      <path class="cls-1" d="M138.51,31.85h-6.91c-1.34-.02-2.19-.57-2.56-1.67-.37-1.1-.55-2.47-.55-4.11v-5.53h-.03V7.98h-6.28v17.34h.03v2.04c0,1.73.45,3.49,1.36,5.3.9,1.81,2.33,2.71,4.27,2.71h10.68v7.54h6.28V7.98h-6.28v23.87Z"/>
      <path class="cls-1" d="M42.09,7.54h-11.31c-1.94,0-3.37.91-4.28,2.73-.91,1.82-1.37,3.59-1.37,5.32v11.33c0,1.73.46,3.49,1.37,5.3.91,1.81,2.34,2.71,4.28,2.71h11.33c1.94,0,3.37-.9,4.27-2.71.9-1.81,1.36-3.58,1.36-5.3v-11.31c0-1.74-.45-3.52-1.36-5.34-.9-1.82-2.34-2.73-4.3-2.73ZM41.47,25.63c0,1.64-.18,3.01-.55,4.11-.37,1.1-1.23,1.65-2.59,1.65l-3.77.03c-1.34,0-2.19-.55-2.56-1.65-.37-1.1-.55-2.48-.55-4.13v-8.77c0-1.64.18-3.02.54-4.13.36-1.11,1.22-1.67,2.58-1.67h3.77c1.36,0,2.22.55,2.59,1.66.37,1.11.55,2.48.55,4.12v8.8Z"/>
      <path class="cls-1" d="M57.08,29.75c-.36-1.11-.54-2.48-.54-4.12v-8.77c0-1.64.18-3.02.54-4.13.36-1.11,1.22-1.67,2.58-1.67h9.45v-3.52h-13.22c-1.94,0-3.37.9-4.27,2.71-.9,1.81-1.36,3.59-1.36,5.33v11.31c0,1.74.45,3.52,1.34,5.33.9,1.81,2.32,2.71,4.26,2.71h13.22v-3.52h-9.45c-1.34,0-2.19-.55-2.55-1.66Z"/>
      <path class="cls-1" d="M113.72,7.54h-11.31c-1.93,0-3.35.69-4.27,2.07-.92,1.38-1.38,3.37-1.38,5.97v11.31c0,2.6.46,4.59,1.38,5.97.92,1.38,2.35,2.07,4.27,2.07h14.45v-3.52h-11.94c-.55,0-1.01-.35-1.36-1.06-.35-.7-.53-1.86-.53-3.47v-11.31c0-1.61.18-2.76.54-3.47.36-.7.81-1.06,1.34-1.06h6.28c.55,0,1.01.35,1.36,1.06.35.7.53,1.86.53,3.47-.02,1.61-.2,2.76-.55,3.46-.35.7-.8,1.05-1.33,1.07h-6.91l.03,3.49h9.42c1.91,0,3.33-.69,4.25-2.06.92-1.37,1.38-3.36,1.38-5.96s-.46-4.59-1.38-5.97c-.92-1.38-2.35-2.07-4.27-2.07Z"/>
      <polygon class="cls-1" points="147.9 34.93 154.21 34.93 154.23 0 147.9 0 147.9 34.93"/>
      <path class="cls-1" d="M173.71,7.54h-11.94v3.52h9.42c.55,0,1.01.35,1.36,1.06.35.7.53,1.86.53,3.47l-.03,15.83h-8.14c-.55,0-1.01-.35-1.36-1.06-.35-.7-.53-1.86-.53-3.47.02-1.61.2-2.76.55-3.46.35-.69.8-1.05,1.33-1.07h6.91l-.03-3.49h-9.42c-1.91,0-3.33.69-4.25,2.06-.92,1.37-1.38,3.36-1.38,5.96s.46,4.59,1.38,5.97c.92,1.38,2.35,2.07,4.27,2.07h16.94l.03-19.35c0-2.6-.46-4.59-1.38-5.97-.92-1.38-2.35-2.07-4.27-2.07Z"/>
      <path class="cls-1" d="M203.11,10.25c-.9-1.81-2.33-2.71-4.27-2.71h-9.42v3.52h5.65c1.34.02,2.19.57,2.56,1.67.37,1.1.55,2.47.55,4.11v8.8c0,1.64-.18,3.02-.55,4.12-.37,1.11-1.23,1.66-2.59,1.66h-6.89V0h-6.28v34.93h16.94c1.96,0,3.39-.91,4.3-2.73.9-1.82,1.36-3.6,1.36-5.34v-11.31c0-1.73-.45-3.49-1.36-5.3Z"/>
      <path class="cls-1" d="M83.34,29.92l4.39,4.74c.19.2.45.32.72.32h5.18c.55,0,.99-.44.99-.99v-1.33c0-.25-.09-.48-.26-.66l-3.1-3.41c-.19-.21-.45-.32-.73-.32h-6.47c-.86,0-1.31,1.03-.72,1.66Z"/>
      <path class="cls-2" d="M77.37,18.61h-8.84c-.28,0-.54.11-.72.32l-3.39,3.67h0c0,.56.44,1,.99,1h16.68c.28,0,.54-.12.73-.32l11.56-12.73c.16-.18.26-.42.26-.66v-1.33c0-.55-.44-.99-.99-.99h-5.18c-.28,0-.54.11-.72.32l-9.64,10.42c-.19.2-.45.32-.72.32Z"/>
    </g>
  </g>
</svg>