<?xml version="1.0" encoding="utf-8"?>
<!-- Generator: Adobe Illustrator 26.0.3, SVG Export Plug-In . SVG Version: 6.00 Build 0)  -->
<svg version="1.1" id="Layer_1" xmlns="http://www.w3.org/2000/svg" xmlns:xlink="http://www.w3.org/1999/xlink" x="0px" y="0px"
	 viewBox="0 0 104 102.2" style="enable-background:new 0 0 104 102.2;" xml:space="preserve">
<style type="text/css">
	.st0{enable-background:new    ;}
</style>
<g>
	<g>
		<g>
			<g class="st0">
				<g>
					<g>
						<g>
							<path d="M77.1,45.3c-2.8,5-6.4,10.2-9.9,14.1L57.8,41c11.6-6.3,22.2-9.5,25.9-9.6C83.2,33.2,80.7,39,77.1,45.3 M14.7,67.5
								C23,61.8,32.4,55.8,43,49.3l12.5,19.6c3.9,6.1,7.1,7.5,10,7.5c7,0,13-7.8,20.4-20.6c5.8-10.1,9.5-19.8,9.5-25.2
								c0-6.4-4.2-10.3-10.7-10.3c-7.2,0-17.4,5-30.5,13.8L40.3,7.1c-2.6-5-5.7-7.1-9.6-7.1C25,0,20.3,4.6,20.3,10.3
								c0,2.5,0.9,4.9,3.1,8.3l16.5,25.9C30,52,21.3,59.1,13.9,65.7L3.6,74.9c-0.1,0.2,0,0.3,0.2,0.2L14.7,67.5z"/>
							<path d="M64.3,89.3l-5.1,11.1c-0.5,1.2-1.6,1.8-3,1.8H43.8c-1.4,0-1.9-1.1-1.3-2.3l4.9-10.6h4.3L47.1,99
								c-0.1,0.3,0,0.4,0.2,0.4h7.4c0.4,0,0.6-0.2,0.7-0.5l4.5-9.7H64.3z"/>
							<path d="M81.8,89.3H69.9c-1.5,0-2.4,0.7-3,2L63,99.7c-0.7,1.4,0,2.5,1.4,2.5h12.1c1.4,0,2.5-0.6,3-1.9l0.4-0.8l-12.2,0
								c-0.3,0-0.4-0.2-0.2-0.4l0.7-1.5c0.2-0.4,0.4-0.5,0.7-0.5h10c1.6,0,2.5-0.8,2.9-1.7l1.6-3.4c0.2-0.5,0.3-0.9,0.3-1.2
								C83.7,89.8,83,89.3,81.8,89.3 M79.2,92.3L78.5,94c-0.1,0.3-0.3,0.4-0.7,0.4h-8.1l1-2c0.1-0.3,0.3-0.4,0.7-0.4H79
								C79.3,91.9,79.3,92.2,79.2,92.3"/>
							<path d="M99.4,92.3l-0.8,1.7c-0.1,0.3-0.4,0.4-0.7,0.4h-8.2l1-2.1c0.1-0.3,0.4-0.5,0.7-0.5h7.8
								C99.5,91.9,99.5,92.2,99.4,92.3 M103.7,92c0.2-0.5,0.3-0.9,0.3-1.2c0-0.9-0.8-1.5-1.9-1.5H89.9c-1.5,0-2.4,0.7-3,2l-5,10.9
								h4.3l2.1-4.6c0.2-0.4,0.4-0.5,0.7-0.5h5.3c0.3,0,0.5,0.1,0.6,0.4l1.7,4.6h4.1l-2-5.1l0.3,0c1.6-0.1,2.7-0.8,3.2-2L103.7,92z"
								/>
							<path d="M41.1,89.3H28.7c-1.3,0-2.3,0.6-2.8,1.8L25.5,92l12.4,0c0.3,0,0.4,0.2,0.3,0.4l-0.6,1.4c-0.2,0.4-0.4,0.5-0.7,0.5
								H26.2c-1.1,0-2.1,0.6-2.6,1.7l-1.7,3.8c-0.6,1.4,0,2.4,1.4,2.4h12.5c1.4,0,2.4-0.6,3-1.8l3.9-8.4c0.2-0.5,0.3-0.9,0.3-1.2
								C43,89.8,42.2,89.3,41.1,89.3 M35.1,99.1c-0.1,0.3-0.3,0.4-0.7,0.4h-7.8c-0.2,0-0.4-0.1-0.2-0.4l0.8-1.8
								c0.1-0.3,0.4-0.4,0.7-0.4h8.3L35.1,99.1z"/>
							<path d="M20.7,89.3H7.9c-1.1,0-2.2,0.5-2.8,1.7L0,102.2h15.6c1.5,0,2.5-0.7,3-1.8l1.1-2.3c0.2-0.4,0.3-0.7,0.3-1.1
								c0-0.8-0.6-1.3-1.4-1.5c0,0,0.5,0,0.9-0.2c1-0.3,1.6-0.8,2.1-1.7l0.8-1.7c0.2-0.5,0.3-0.9,0.3-1.2
								C22.7,89.8,21.9,89.3,20.7,89.3 M14.9,99.1c-0.1,0.3-0.3,0.4-0.7,0.4H5.9c-0.3,0-0.3-0.2-0.2-0.4l0.8-1.8
								c0.1-0.3,0.3-0.4,0.7-0.4h8.7L14.9,99.1z M18.1,92.3l-0.7,1.5c-0.2,0.3-0.3,0.4-0.7,0.4H8l0.9-1.9C9,92,9.2,91.9,9.5,91.9
								h8.2C18.1,91.9,18.2,92.1,18.1,92.3"/>
						</g>
					</g>
				</g>
			</g>
		</g>
	</g>
</g>
</svg>
