<svg xmlns="http://www.w3.org/2000/svg" xmlns:xlink="http://www.w3.org/1999/xlink" viewBox="0 0 541.68 202.08"><linearGradient id="a" x1="62.7" x2="110.93" y1="102.07" y2="53.84" gradientUnits="userSpaceOnUse"><stop offset="0" stop-color="#1c3556"/><stop offset=".07" stop-color="#203b5c"/><stop offset=".16" stop-color="#294b6d"/><stop offset=".27" stop-color="#3a6688"/><stop offset=".34" stop-color="#477b9e"/><stop offset="1" stop-color="#1c3556"/></linearGradient><linearGradient xlink:href="#a" id="c" x1="112.81" x2="156.28" y1="114.37" y2="70.9"/><linearGradient xlink:href="#a" id="d" x1="161.35" x2="209.58" y1="109.76" y2="61.53"/><linearGradient xlink:href="#a" id="e" x1="199.08" x2="255.65" y1="105.56" y2="48.98"/><linearGradient xlink:href="#a" id="f" x1="257.33" x2="315.07" y1="112.47" y2="54.73"/><linearGradient xlink:href="#a" id="g" x1="352.06" x2="411.12" y1="114.87" y2="55.81"/><linearGradient xlink:href="#a" id="h" x1="405.94" x2="465.95" y1="110.59" y2="50.57"/><linearGradient xlink:href="#a" id="i" x1="455.35" x2="515.08" y1="109.45" y2="49.72"/><linearGradient id="j" x1="209.28" x2="452.51" y1="158.2" y2="158.2" gradientUnits="userSpaceOnUse"><stop offset="0" stop-color="#e2f2f6" stop-opacity="0"/><stop offset=".07" stop-color="#e2f2f6" stop-opacity=".17"/><stop offset=".16" stop-color="#e2f2f6" stop-opacity=".36"/><stop offset=".25" stop-color="#e2f2f6" stop-opacity=".53"/><stop offset=".35" stop-color="#e2f2f6" stop-opacity=".68"/><stop offset=".45" stop-color="#e2f2f6" stop-opacity=".8"/><stop offset=".56" stop-color="#e2f2f6" stop-opacity=".89"/><stop offset=".68" stop-color="#e2f2f6" stop-opacity=".95"/><stop offset=".81" stop-color="#e2f2f6" stop-opacity=".99"/><stop offset="1" stop-color="#e2f2f6"/></linearGradient><linearGradient id="k" x1="240.78" x2="446.38" y1="161.84" y2="161.84" gradientUnits="userSpaceOnUse"><stop offset="0" stop-color="#e2f2f6" stop-opacity="0"/><stop offset="0" stop-color="#e2f2f6" stop-opacity=".01"/><stop offset=".04" stop-color="#e2f2f6" stop-opacity=".2"/><stop offset=".09" stop-color="#e2f2f6" stop-opacity=".36"/><stop offset=".14" stop-color="#e2f2f6" stop-opacity=".52"/><stop offset=".19" stop-color="#e2f2f6" stop-opacity=".65"/><stop offset=".25" stop-color="#e2f2f6" stop-opacity=".76"/><stop offset=".32" stop-color="#e2f2f6" stop-opacity=".85"/><stop offset=".39" stop-color="#e2f2f6" stop-opacity=".92"/><stop offset=".49" stop-color="#e2f2f6" stop-opacity=".96"/><stop offset=".62" stop-color="#e2f2f6" stop-opacity=".99"/><stop offset="1" stop-color="#e2f2f6"/></linearGradient><linearGradient id="l" x1="154.2" x2="325.21" y1="167.9" y2="167.9" gradientUnits="userSpaceOnUse"><stop offset="0" stop-color="#e2f2f6" stop-opacity="0"/><stop offset=".12" stop-color="#e2f2f6" stop-opacity=".13"/><stop offset=".56" stop-color="#e2f2f6" stop-opacity=".59"/><stop offset=".86" stop-color="#e2f2f6" stop-opacity=".89"/><stop offset="1" stop-color="#e2f2f6"/></linearGradient><linearGradient id="m" x1="297.06" x2="374.17" y1="150.9" y2="150.9" gradientUnits="userSpaceOnUse"><stop offset="0" stop-color="#010101"/><stop offset=".18" stop-color="#0b1318"/><stop offset=".57" stop-color="#264154"/><stop offset="1" stop-color="#477b9e"/></linearGradient><linearGradient id="b" x1="34.69" x2="82.39" y1="118.72" y2="118.72" gradientUnits="userSpaceOnUse"><stop offset="0" stop-color="#1c3556"/><stop offset=".07" stop-color="#4a5e78"/><stop offset=".14" stop-color="#748397"/><stop offset=".22" stop-color="#99a5b3"/><stop offset=".3" stop-color="#b9c1cb"/><stop offset=".39" stop-color="#d3d8de"/><stop offset=".49" stop-color="#e6e9ed"/><stop offset=".61" stop-color="#f4f6f7"/><stop offset=".75" stop-color="#fdfdfd"/><stop offset="1" stop-color="#fff"/></linearGradient><linearGradient xlink:href="#b" id="n" x1="44.96" x2="80.26" y1="124.1" y2="124.1"/><linearGradient xlink:href="#b" id="o" x1="52.09" x2="104.91" y1="128.85" y2="128.85"/><path fill="url(#a)" d="M83.54 111.61c7.12 3.21 14.38 6.18 21.66 9.14l.15.06v-9.47a1.68 1.68 0 0 0-1.91-1.9H82.35q-6.88 0-6.88-6.87v-7.72a1.12 1.12 0 0 1 1.27-1.27h21.15a1.69 1.69 0 0 0 1.91-1.91v-12a1.69 1.69 0 0 0-1.91-1.91H76.74a1.12 1.12 0 0 1-1.27-1.27V63.12a1.12 1.12 0 0 1 1.27-1.27h25.38A1.68 1.68 0 0 0 104 60V47.89a1.68 1.68 0 0 0-1.91-1.9H58.34a1.68 1.68 0 0 0-1.9 1.9v47.92a47.82 47.82 0 0 0 6.53 5 155.64 155.64 0 0 0 20.57 10.8z" transform="translate(-20.06 -13.55)"/><path fill="url(#c)" d="M131.15 125.3H168a1.68 1.68 0 0 0 1.91-1.9v-12.06a1.68 1.68 0 0 0-1.91-1.9h-33.78a1.68 1.68 0 0 1-1.91-1.9V47.89a1.68 1.68 0 0 0-1.9-1.9h-15.49c-1.1 0-1.64.63-1.64 1.9v59.54a17.86 17.86 0 0 0 17.87 17.87z" transform="translate(-20.06 -13.55)"/><path fill="url(#d)" d="M177.84 125.3h15.28a1.65 1.65 0 0 0 1.85-1.9V47.89a1.65 1.65 0 0 0-1.85-1.9h-15.28a1.68 1.68 0 0 0-1.9 1.9v75.51a1.68 1.68 0 0 0 1.9 1.9z" transform="translate(-20.06 -13.55)"/><path fill="url(#e)" d="M203 61.85h13.6a1.12 1.12 0 0 1 1.27 1.27v60.28a1.68 1.68 0 0 0 1.9 1.9h15.29a1.66 1.66 0 0 0 1.85-1.9V63.12a1.12 1.12 0 0 1 1.27-1.27h13.53a1.66 1.66 0 0 0 1.91-1.85V47.89a1.68 1.68 0 0 0-1.91-1.9H203a1.68 1.68 0 0 0-1.9 1.9V60a1.66 1.66 0 0 0 1.9 1.85z" transform="translate(-20.06 -13.55)"/><path fill="url(#f)" d="M277.57 125.3h29.13a1.68 1.68 0 0 0 1.91-1.9v-12.06a1.68 1.68 0 0 0-1.91-1.9h-21.09q-6.89 0-6.88-6.87v-7.72a1.12 1.12 0 0 1 1.27-1.27h21.15a1.69 1.69 0 0 0 1.91-1.91v-12a1.69 1.69 0 0 0-1.91-1.91H280a1.12 1.12 0 0 1-1.27-1.27V63.12a1.12 1.12 0 0 1 1.27-1.27h25.38a1.68 1.68 0 0 0 1.91-1.9V47.89a1.68 1.68 0 0 0-1.91-1.9H261.6a1.68 1.68 0 0 0-1.9 1.9v59.54a17.86 17.86 0 0 0 17.87 17.87z" transform="translate(-20.06 -13.55)"/><path fill="url(#g)" d="M400 45.68h-30.41a17.87 17.87 0 0 0-17.88 17.87v43.57A17.89 17.89 0 0 0 369.59 125H400a1.69 1.69 0 0 0 1.91-1.91V111a1.69 1.69 0 0 0-1.91-1.91h-28a1.17 1.17 0 0 1-1.32-1.27v-45a1.17 1.17 0 0 1 1.32-1.27h28a1.68 1.68 0 0 0 1.91-1.9V47.58a1.68 1.68 0 0 0-1.91-1.9z" transform="translate(-20.06 -13.55)"/><path fill="url(#h)" d="M460.11 45.68h-15.23a1.68 1.68 0 0 0-1.9 1.9v56.79c0 3.18-1.59 4.76-4.76 4.76h-4.55c-3.17 0-4.76-1.58-4.76-4.76V47.58a1.68 1.68 0 0 0-1.9-1.9h-15.23a1.68 1.68 0 0 0-1.9 1.9v59.54a17.21 17.21 0 0 0 5.23 12.64A17.53 17.53 0 0 0 428 125h16.13A17.89 17.89 0 0 0 462 107.12V47.58a1.68 1.68 0 0 0-1.89-1.9z" transform="translate(-20.06 -13.55)"/><path fill="url(#i)" d="M516.27 50.91a17.23 17.23 0 0 0-12.64-5.23h-31.78a1.68 1.68 0 0 0-1.9 1.9v75.51a1.68 1.68 0 0 0 1.9 1.91h15.23a1.68 1.68 0 0 0 1.9-1.91V99.83a1.12 1.12 0 0 1 1.27-1.27h13.38a17.87 17.87 0 0 0 17.87-17.88V63.55a17.23 17.23 0 0 0-5.23-12.64zm-13.8 28.61q0 3.7-3.71 3.7h-8.51A1.12 1.12 0 0 1 489 82V62a1.12 1.12 0 0 1 1.27-1.27h8.51q3.71 0 3.71 3.7z" transform="translate(-20.06 -13.55)"/><path fill="#1c3556" d="m61.71 101.96-1.55-.73-13.1 9.06-16.8 11.62a6.48 6.48 0 0 1 .54 1.2l3.84 2.34.46-.18 18.84-13.53 11.38-8.17c-1.17-.54-2.38-1.06-3.61-1.61zM84.23 111.62l-.77-.32-1.14-.47-1.36.92-31.9 21.7-.7-.4c0 .31.06.62.07.93l3.7 2.27 33.55-24zM121.76 147.36a42.56 42.56 0 0 0 9.93-4.91 11.65 11.65 0 0 0 3.34-3.4 3 3 0 0 0 0-3.24 11.52 11.52 0 0 0-3.49-3.21 51.47 51.47 0 0 0-4.94-2.64c-7.2-3.5-14.55-6.74-22-9.87l-37.4 25.45 4.85 3c.83.48 1.54.86 2.34 1.27s1.62.71 2.51.95a43.79 43.79 0 0 0 11 1.82 89.54 89.54 0 0 0 22.8-2.07 80.6 80.6 0 0 0 11.06-3.15zM53.23 97.88a116.91 116.91 0 0 1-12.59-7.2c-1.44-1-2.88-2-4.26-3.16a32.32 32.32 0 0 1-5-4.95 15.92 15.92 0 0 1-3.1-5.74 42.43 42.43 0 0 1-1.3-6 229.38 229.38 0 0 1-2.07-23.68c-.43-9.33-.68-18.65-.82-28H4.73v22.87l-.14 22c-.06 3.66 0 7.32-.15 11a61.25 61.25 0 0 0 .43 10.77 44 44 0 0 0 7.44 19.66 77 77 0 0 0 12.59 13.53l16.73-12.4z"/><path fill="url(#j)" d="m298.48 157.86-2.29-1.18-86.91 3 90.18-.24c.05-.24.08-.47.14-.69.26-.53-1.43-.36-1.12-.89z" transform="translate(-20.06 -13.55)"/><path fill="url(#k)" d="M296.45 161.25a9.83 9.83 0 0 1-.5-1L240.78 162l56.38 1.4v-1.31z" transform="translate(-20.06 -13.55)"/><path fill="url(#l)" d="M295.13 169.49v-6.73l-140.93 4.4L297 173a5.41 5.41 0 0 1-1.81-3.55z" transform="translate(-20.06 -13.55)"/><path fill="url(#m)" d="M299 153.37a18.08 18.08 0 0 0 4 2.41l.25.13a53.17 53.17 0 0 0 10.06 3.2l.87.16c2.73.58 5.49 1 8.28 1.35q6.09.72 12.25.85c3.48.07 7 0 10.45-.16a104.92 104.92 0 0 0 11.17-1.16 53.18 53.18 0 0 0 10.45-2.86 19.89 19.89 0 0 0 4.69-2.65 5.92 5.92 0 0 0 2.64-4.35 4.56 4.56 0 0 0-.13-.62 6.25 6.25 0 0 0-2.62-3.6 19.41 19.41 0 0 0-4.72-2.45 52 52 0 0 0-10.47-2.42 152.5 152.5 0 0 0-21.46-.88c-3.57.07-7.14.19-10.69.57a100.46 100.46 0 0 0-10.55 1.39 53 53 0 0 0-10.06 2.77 20 20 0 0 0-3.84 2c-.15.1-.32.19-.46.29a5.26 5.26 0 0 0-2 2.3 2.6 2.6 0 0 0-.14.62v.19a4.56 4.56 0 0 0 2.03 2.92z" transform="translate(-20.06 -13.55)"/><path fill="#010101" d="M351.73 141.45a21.83 21.83 0 0 1-4.76 2.77 57.93 57.93 0 0 1-10.44 3.41c-2.43.6-4.88 1-7.35 1.43a118.77 118.77 0 0 1-14.47 1.31h-5.99a105.86 105.86 0 0 1-16-1.64 66.16 66.16 0 0 1-7.22-1.79c-1.21-.38-2.42-.79-3.61-1.28a24.29 24.29 0 0 1-3.16-1.55 16.72 16.72 0 0 1-2-1.33c-.4-.34-.82-.65-1.21-1l-.39-.46v14.75a5.41 5.41 0 0 0 1.81 3.38c5 5 20.05 8.68 37.81 8.68 21.73 0 39.36-5.46 39.63-12.23v-17.87a7.16 7.16 0 0 1-2.65 3.42z"/><path fill="url(#b)" d="m34.69 125.5 30.69-21.85 17.01 7.21-34.04 22.92z"/><path fill="url(#n)" d="m45 132.58 28.26-21.12 7 3.38-29.11 21.91a33.2 33.2 0 0 1-6.15-4.17z" transform="translate(-20.06 -13.55)"/><path fill="url(#o)" d="m52.09 136.31 33.57-24.16 19.25 8-37.61 25.4z"/></svg>