<?xml version="1.0" encoding="UTF-8" standalone="no"?>
<!DOCTYPE svg PUBLIC "-//W3C//DTD SVG 1.1//EN" "http://www.w3.org/Graphics/SVG/1.1/DTD/svg11.dtd">
<svg width="100%" height="100%" viewBox="0 0 300 108" version="1.1" xmlns="http://www.w3.org/2000/svg" xmlns:xlink="http://www.w3.org/1999/xlink" xml:space="preserve" xmlns:serif="http://www.serif.com/" style="fill-rule:evenodd;clip-rule:evenodd;stroke-linecap:round;stroke-linejoin:round;stroke-miterlimit:1.5;">
    <rect id="_300x108" serif:id="300x108" x="0" y="0" width="300" height="108" style="fill:none;"/>
    <g id="_300x1081" serif:id="300x108">
        <g transform="matrix(4.23266,0,0,4.23266,-5467.28,-964.127)">
            <path d="M1316.97,237.3C1316.97,237.982 1317.21,238.565 1317.69,239.05C1318.18,239.534 1318.76,239.776 1319.44,239.776L1323.66,239.776C1323.77,239.776 1323.83,239.722 1323.83,239.612L1323.83,237.862C1323.83,237.758 1323.77,237.706 1323.66,237.706L1320.61,237.706C1319.87,237.706 1319.5,237.336 1319.5,236.597L1319.5,235.479C1319.5,235.276 1319.6,235.175 1319.79,235.175L1322.86,235.175C1322.97,235.175 1323.02,235.123 1323.02,235.019L1323.02,233.269C1323.02,233.164 1322.97,233.112 1322.86,233.112L1319.79,233.112C1319.6,233.112 1319.5,233.011 1319.5,232.808L1319.5,230.878C1319.5,230.68 1319.6,230.581 1319.79,230.581L1323.47,230.581C1323.58,230.581 1323.63,230.529 1323.63,230.425L1323.63,228.675C1323.63,228.565 1323.58,228.511 1323.47,228.511L1317.13,228.511C1317.02,228.511 1316.97,228.565 1316.97,228.675L1316.97,237.3ZM1316.74,237.3L1316.74,228.675C1316.74,228.414 1316.87,228.284 1317.13,228.284L1323.47,228.284C1323.73,228.284 1323.86,228.414 1323.86,228.675L1323.86,230.425C1323.86,230.685 1323.73,230.815 1323.47,230.815L1319.79,230.815C1319.75,230.815 1319.72,230.836 1319.72,230.878L1319.72,232.808C1319.72,232.854 1319.75,232.878 1319.79,232.878L1322.86,232.878C1323.12,232.878 1323.25,233.008 1323.25,233.269L1323.25,235.019C1323.25,235.279 1323.12,235.409 1322.86,235.409L1319.79,235.409C1319.75,235.409 1319.72,235.433 1319.72,235.479L1319.72,236.597C1319.72,237.18 1320.02,237.472 1320.61,237.472L1323.66,237.472C1323.92,237.472 1324.05,237.602 1324.05,237.862L1324.05,239.612C1324.05,239.873 1323.92,240.003 1323.66,240.003L1319.44,240.003C1318.7,240.003 1318.06,239.739 1317.53,239.21C1317,238.681 1316.74,238.045 1316.74,237.3Z" style="fill-rule:nonzero;"/>
        </g>
        <g transform="matrix(4.23266,0,0,4.23266,-5467.28,-964.127)">
            <path d="M1327.85,239.776L1333.18,239.776C1333.29,239.776 1333.34,239.722 1333.34,239.612L1333.34,237.862C1333.34,237.758 1333.29,237.706 1333.18,237.706L1328.29,237.706C1328.03,237.706 1327.9,237.576 1327.9,237.315L1327.9,228.675C1327.9,228.565 1327.85,228.511 1327.74,228.511L1325.5,228.511C1325.41,228.511 1325.37,228.565 1325.37,228.675L1325.37,237.3C1325.37,237.982 1325.61,238.565 1326.1,239.05C1326.58,239.534 1327.17,239.776 1327.85,239.776ZM1327.85,240.003C1327.1,240.003 1326.47,239.739 1325.94,239.21C1325.41,238.681 1325.14,238.045 1325.14,237.3L1325.14,228.675C1325.14,228.414 1325.26,228.284 1325.5,228.284L1327.74,228.284C1328,228.284 1328.13,228.414 1328.13,228.675L1328.13,237.315C1328.13,237.42 1328.18,237.472 1328.29,237.472L1333.18,237.472C1333.44,237.472 1333.57,237.602 1333.57,237.862L1333.57,239.612C1333.57,239.873 1333.44,240.003 1333.18,240.003L1327.85,240.003Z" style="fill-rule:nonzero;"/>
        </g>
        <g transform="matrix(4.23266,0,0,4.23266,-5467.28,-964.127)">
            <path d="M1337.1,228.675C1337.1,228.565 1337.05,228.511 1336.94,228.511L1334.73,228.511C1334.62,228.511 1334.57,228.565 1334.57,228.675L1334.57,239.612C1334.57,239.722 1334.62,239.776 1334.73,239.776L1336.94,239.776C1337.05,239.776 1337.1,239.722 1337.1,239.612L1337.1,228.675ZM1337.33,239.612C1337.33,239.873 1337.2,240.003 1336.94,240.003L1334.73,240.003C1334.47,240.003 1334.34,239.873 1334.34,239.612L1334.34,228.675C1334.34,228.414 1334.47,228.284 1334.73,228.284L1336.94,228.284C1337.2,228.284 1337.33,228.414 1337.33,228.675L1337.33,239.612Z" style="fill-rule:nonzero;"/>
        </g>
        <g transform="matrix(4.23266,0,0,4.23266,-5467.28,-964.127)">
            <path d="M1340.76,230.878L1340.76,239.612C1340.76,239.722 1340.82,239.776 1340.93,239.776L1343.14,239.776C1343.24,239.776 1343.29,239.722 1343.29,239.612L1343.29,230.878C1343.29,230.68 1343.39,230.581 1343.59,230.581L1345.55,230.581C1345.66,230.581 1345.72,230.532 1345.72,230.433L1345.72,228.675C1345.72,228.565 1345.66,228.511 1345.55,228.511L1338.49,228.511C1338.38,228.511 1338.33,228.565 1338.33,228.675L1338.33,230.433C1338.33,230.532 1338.38,230.581 1338.49,230.581L1340.47,230.581C1340.66,230.581 1340.76,230.68 1340.76,230.878ZM1340.54,230.878C1340.54,230.836 1340.51,230.815 1340.47,230.815L1338.49,230.815C1338.23,230.815 1338.1,230.688 1338.1,230.433L1338.1,228.675C1338.1,228.414 1338.23,228.284 1338.49,228.284L1345.55,228.284C1345.81,228.284 1345.94,228.414 1345.94,228.675L1345.94,230.433C1345.94,230.688 1345.81,230.815 1345.55,230.815L1343.59,230.815C1343.54,230.815 1343.52,230.836 1343.52,230.878L1343.52,239.612C1343.52,239.873 1343.39,240.003 1343.14,240.003L1340.93,240.003C1340.67,240.003 1340.54,239.873 1340.54,239.612L1340.54,230.878Z" style="fill-rule:nonzero;"/>
        </g>
        <g transform="matrix(4.23266,0,0,4.23266,-5467.28,-964.127)">
            <path d="M1346.99,237.3C1346.99,237.982 1347.23,238.565 1347.72,239.05C1348.2,239.534 1348.78,239.776 1349.47,239.776L1353.68,239.776C1353.79,239.776 1353.85,239.722 1353.85,239.612L1353.85,237.862C1353.85,237.758 1353.79,237.706 1353.68,237.706L1350.63,237.706C1349.89,237.706 1349.52,237.336 1349.52,236.597L1349.52,235.479C1349.52,235.276 1349.62,235.175 1349.82,235.175L1352.88,235.175C1352.99,235.175 1353.04,235.123 1353.04,235.019L1353.04,233.269C1353.04,233.164 1352.99,233.112 1352.88,233.112L1349.82,233.112C1349.62,233.112 1349.52,233.011 1349.52,232.808L1349.52,230.878C1349.52,230.68 1349.62,230.581 1349.82,230.581L1353.5,230.581C1353.6,230.581 1353.65,230.529 1353.65,230.425L1353.65,228.675C1353.65,228.565 1353.6,228.511 1353.5,228.511L1347.15,228.511C1347.04,228.511 1346.99,228.565 1346.99,228.675L1346.99,237.3ZM1346.76,237.3L1346.76,228.675C1346.76,228.414 1346.89,228.284 1347.15,228.284L1353.5,228.284C1353.76,228.284 1353.89,228.414 1353.89,228.675L1353.89,230.425C1353.89,230.685 1353.76,230.815 1353.5,230.815L1349.82,230.815C1349.77,230.815 1349.75,230.836 1349.75,230.878L1349.75,232.808C1349.75,232.854 1349.77,232.878 1349.82,232.878L1352.88,232.878C1353.14,232.878 1353.27,233.008 1353.27,233.269L1353.27,235.019C1353.27,235.279 1353.14,235.409 1352.88,235.409L1349.82,235.409C1349.77,235.409 1349.75,235.433 1349.75,235.479L1349.75,236.597C1349.75,237.18 1350.04,237.472 1350.63,237.472L1353.68,237.472C1353.94,237.472 1354.08,237.602 1354.08,237.862L1354.08,239.612C1354.08,239.873 1353.94,240.003 1353.68,240.003L1349.47,240.003C1348.72,240.003 1348.08,239.739 1347.56,239.21C1347.03,238.681 1346.76,238.045 1346.76,237.3Z" style="fill-rule:nonzero;"/>
        </g>
        <g transform="matrix(4.0569,0,0,3.4332,-5179.93,-718.1)">
            <path d="M1319.5,230.878C1319.51,230.68 1319.61,230.581 1319.8,230.581L1323.86,230.581C1323.96,230.581 1324.01,230.529 1324.01,230.425L1324.01,228.675C1324.01,228.565 1323.96,228.511 1323.86,228.511L1319.44,228.511C1318.76,228.511 1318.18,228.753 1317.69,229.237C1317.21,229.722 1316.97,230.305 1316.97,230.987L1316.97,237.3C1316.97,237.982 1317.21,238.565 1317.69,239.05C1318.18,239.534 1318.76,239.776 1319.44,239.776L1323.86,239.776C1323.96,239.776 1324.01,239.722 1324.01,239.612L1324.01,237.862C1324.01,237.758 1323.96,237.706 1323.86,237.706L1319.8,237.706C1319.61,237.706 1319.51,237.607 1319.5,237.409L1319.5,230.878ZM1319.72,237.409C1319.72,237.451 1319.75,237.472 1319.8,237.472L1323.86,237.472C1324.12,237.472 1324.25,237.602 1324.25,237.862L1324.25,239.612C1324.25,239.873 1324.12,240.003 1323.86,240.003L1319.44,240.003C1318.7,240.003 1318.06,239.739 1317.53,239.21C1317,238.681 1316.74,238.045 1316.74,237.3L1316.74,230.987C1316.74,230.243 1317,229.606 1317.53,229.077C1318.06,228.548 1318.7,228.284 1319.44,228.284L1323.86,228.284C1324.12,228.284 1324.25,228.414 1324.25,228.675L1324.25,230.425C1324.25,230.685 1324.12,230.815 1323.86,230.815L1319.8,230.815C1319.75,230.815 1319.72,230.836 1319.72,230.878L1319.72,237.409Z" style="fill-rule:nonzero;"/>
        </g>
        <g transform="matrix(4.0569,0,0,3.4332,-5179.93,-718.1)">
            <path d="M1327.93,228.511L1325.73,228.511C1325.62,228.511 1325.57,228.565 1325.57,228.675L1325.57,237.3C1325.57,237.982 1325.81,238.565 1326.29,239.05C1326.78,239.534 1327.37,239.776 1328.08,239.776L1330.42,239.776C1331.1,239.776 1331.68,239.534 1332.17,239.05C1332.65,238.565 1332.89,237.982 1332.89,237.3L1332.89,228.675C1332.89,228.565 1332.84,228.511 1332.73,228.511L1330.53,228.511C1330.42,228.511 1330.36,228.565 1330.36,228.675L1330.36,236.901C1330.36,237.438 1330.1,237.706 1329.56,237.706L1328.9,237.706C1328.37,237.706 1328.1,237.438 1328.1,236.901L1328.1,228.675C1328.1,228.565 1328.04,228.511 1327.93,228.511ZM1327.93,228.284C1328.19,228.284 1328.33,228.414 1328.33,228.675L1328.33,236.901C1328.33,237.282 1328.52,237.472 1328.9,237.472L1329.56,237.472C1329.94,237.472 1330.14,237.282 1330.14,236.901L1330.14,228.675C1330.14,228.414 1330.27,228.284 1330.53,228.284L1332.73,228.284C1332.99,228.284 1333.12,228.414 1333.12,228.675L1333.12,237.3C1333.12,238.045 1332.86,238.681 1332.33,239.21C1331.8,239.739 1331.16,240.003 1330.42,240.003L1328.08,240.003C1327.31,240.003 1326.66,239.739 1326.13,239.21C1325.61,238.681 1325.34,238.045 1325.34,237.3L1325.34,228.675C1325.34,228.414 1325.47,228.284 1325.73,228.284L1327.93,228.284Z" style="fill-rule:nonzero;"/>
        </g>
        <g transform="matrix(4.0569,0,0,3.4332,-5179.93,-718.1)">
            <path d="M1337.27,230.698C1337.22,230.698 1337.2,230.722 1337.2,230.769L1337.2,233.651C1337.2,233.698 1337.22,233.722 1337.27,233.722L1338.51,233.722C1338.79,233.722 1338.93,233.581 1338.93,233.3L1338.93,231.12C1338.93,230.839 1338.79,230.698 1338.51,230.698L1337.27,230.698ZM1341.68,230.987C1341.68,230.305 1341.44,229.722 1340.96,229.237C1340.48,228.753 1339.89,228.511 1339.21,228.511L1334.61,228.511C1334.5,228.511 1334.44,228.565 1334.44,228.675L1334.44,239.612C1334.44,239.722 1334.5,239.776 1334.61,239.776L1336.81,239.776C1336.92,239.776 1336.97,239.722 1336.97,239.612L1336.97,236.245C1336.97,236.042 1337.07,235.94 1337.27,235.94L1339.21,235.94C1339.89,235.94 1340.48,235.7 1340.96,235.218C1341.44,234.736 1341.68,234.154 1341.68,233.472L1341.68,230.987ZM1337.27,230.464L1338.51,230.464C1338.94,230.464 1339.15,230.683 1339.15,231.12L1339.15,233.3C1339.15,233.732 1338.94,233.948 1338.51,233.948L1337.27,233.948C1337.07,233.948 1336.97,233.849 1336.97,233.651L1336.97,230.769C1336.97,230.565 1337.07,230.464 1337.27,230.464ZM1341.91,233.472C1341.91,234.216 1341.65,234.853 1341.12,235.382C1340.59,235.91 1339.95,236.175 1339.21,236.175L1337.27,236.175C1337.22,236.175 1337.2,236.198 1337.2,236.245L1337.2,239.612C1337.2,239.873 1337.07,240.003 1336.81,240.003L1334.61,240.003C1334.35,240.003 1334.22,239.873 1334.22,239.612L1334.22,228.675C1334.22,228.414 1334.35,228.284 1334.61,228.284L1339.21,228.284C1339.95,228.284 1340.59,228.548 1341.12,229.077C1341.65,229.606 1341.91,230.243 1341.91,230.987L1341.91,233.472Z" style="fill-rule:nonzero;"/>
        </g>
        <g transform="matrix(0.064557,0,0,0.0719032,32.4412,-32.7262)">
            <circle cx="602.537" cy="835.768" r="338.732"/>
        </g>
        <g transform="matrix(0.0675922,0,0,0.0675922,31.5524,-27.6629)">
            <path d="M648.582,455.303C658.336,454.326 668.222,453.827 678.211,453.827C857.88,453.827 1003.75,615.289 1003.75,814.164C1003.75,1013.04 857.88,1174.5 678.211,1174.5C668.222,1174.5 658.336,1174 648.582,1173.02C814.39,1156.43 940.806,1001.98 940.806,814.164C940.806,626.346 814.39,471.897 648.582,455.303Z"/>
        </g>
        <g transform="matrix(0.0675922,0,0,0.0675922,31.5524,-27.6629)">
            <path d="M100.93,606.841C89.718,608.317 -115.051,1410.35 590.644,1693.21C1278.38,1968.88 1558.11,2041.47 1731.93,1841.47C1893.51,1655.57 1949.82,1484 1724.99,1385.91C1445.76,1288.88 898.169,1323.53 563.549,1256.75C343.282,1212.79 150.692,1086.64 100.93,606.841Z"/>
        </g>
        <path d="M120.311,61.51L120.311,103.367C122.485,103.79 124.524,104.096 126.444,104.281L126.444,62.021C124.439,61.83 122.391,61.662 120.311,61.51Z" style="fill:rgb(229,49,22);"/>
        <path d="M81.635,59.005L81.635,90.805C83.707,91.612 85.716,92.385 87.666,93.124L87.666,59.543C85.613,59.383 83.599,59.206 81.635,59.005Z" style="fill:rgb(229,49,22);"/>
        <path d="M87.743,59.549L87.666,59.543L87.666,93.124L87.771,93.164C88.081,93.281 88.391,93.398 88.701,93.515L88.799,93.552L88.799,59.63L88.798,59.629C88.446,59.603 88.095,59.576 87.743,59.549Z"/>
        <path d="M88.799,59.63L88.799,93.552C90.903,94.345 92.937,95.096 94.902,95.806L94.902,60.038C92.845,59.913 90.806,59.779 88.799,59.63Z" style="fill:rgb(229,49,22);"/>
        <path d="M94.932,60.04L94.932,95.817C96.974,96.554 98.942,97.247 100.841,97.893L100.841,60.376C98.861,60.269 96.887,60.159 94.932,60.04Z" style="fill:white;"/>
        <path d="M69.509,57.256L69.509,85.962C70.152,86.243 70.808,86.517 71.475,86.785C72.805,87.318 74.112,87.84 75.392,88.348L75.392,58.252C73.393,57.968 71.471,57.648 69.644,57.283C69.599,57.274 69.555,57.266 69.509,57.256Z" style="fill:rgb(229,49,22);"/>
        <path d="M75.392,58.252L75.392,88.348C77.532,89.198 79.612,90.017 81.635,90.805L81.635,59.005C79.488,58.785 77.401,58.537 75.392,58.252Z" style="fill:white;"/>
        <path d="M100.841,60.376L100.841,97.893C102.901,98.595 104.879,99.242 106.78,99.835L106.78,60.691C104.801,60.586 102.817,60.483 100.841,60.376Z" style="fill:rgb(2,148,63);"/>
        <path d="M107.943,60.754L107.943,100.194C110.005,100.823 111.972,101.384 113.852,101.878L113.852,61.085C111.894,60.968 109.921,60.86 107.943,60.754Z" style="fill:white;"/>
        <path d="M113.852,61.085L113.852,101.878C116.129,102.475 118.278,102.972 120.311,103.367L120.311,61.51C118.185,61.354 116.028,61.215 113.852,61.085Z" style="fill:rgb(1,80,157);"/>
        <g transform="matrix(0.0692681,0,0,0.0711971,29.5774,-33.0067)">
            <path d="M1330,1433L1209,1433C1193.39,1512.16 1209.96,1569.12 1269.01,1587.75C1326.49,1570.34 1345.13,1512.08 1330,1433Z" style="fill:rgb(229,49,22);stroke:white;stroke-width:4.98px;"/>
        </g>
        <g transform="matrix(1,0,0,1,-0.00955613,-0.102307)">
            <path d="M117.08,71.224L117.08,71.209C117.043,70.519 116.938,69.989 116.742,69.67L118.162,69.67C117.921,70.09 117.824,70.612 117.824,71.202L117.824,71.224L118.642,71.224C118.98,71.227 119.265,71.113 119.528,70.954L119.528,72.306C119.235,72.161 118.937,72.097 118.635,72.103L117.824,72.103L117.824,73.109L118.877,73.109C119.28,73.112 119.62,72.998 119.934,72.839L119.934,74.191C119.584,74.046 119.229,73.981 118.869,73.988L117.824,73.988L117.824,76.159L117.08,76.159L117.08,73.988L115.982,73.988C115.622,73.981 115.267,74.046 114.917,74.191L114.917,72.839C115.231,72.998 115.571,73.112 115.974,73.109L117.08,73.109L117.08,72.103L116.216,72.103C115.914,72.097 115.616,72.161 115.323,72.306L115.323,70.954C115.586,71.113 115.871,71.227 116.209,71.224L117.08,71.224Z" style="fill:white;"/>
        </g>
        <g transform="matrix(0.937846,0,0,0.937846,7.32409,4.75758)">
            <path d="M114.06,77.505C114.18,76.736 114.703,76.157 115.329,76.157C115.682,76.157 116.001,76.34 116.235,76.637C116.416,75.971 116.893,75.495 117.452,75.495C117.986,75.495 118.445,75.929 118.643,76.548C118.876,76.306 119.19,76.157 119.536,76.157C120.251,76.157 120.831,76.794 120.831,77.579C120.831,77.594 120.831,77.61 120.83,77.626C120.076,78.816 118.968,79.678 117.489,80.139C115.933,79.634 114.803,78.735 114.06,77.505Z" style="fill:rgb(1,80,157);"/>
        </g>
    </g>
</svg>
