<?xml version="1.0" encoding="utf-8"?>
<!-- Generator: Adobe Illustrator 19.2.0, SVG Export Plug-In . SVG Version: 6.00 Build 0)  -->
<svg version="1.1" id="Logo" xmlns="http://www.w3.org/2000/svg" xmlns:xlink="http://www.w3.org/1999/xlink" x="0px" y="0px"
	 viewBox="0 0 566.9 171.8" style="enable-background:new 0 0 566.9 171.8;" xml:space="preserve">
<style type="text/css">
	.st0{fill:#D20A25;}
	.st1{fill:#0F1F48;}
	.st2{fill:#FFFFFF;}
	.st3{fill:#DADADA;}
</style>
<g id="Hockey">
	<polygon class="st0" points="190.3,71.2 202.5,71.2 202.5,29.6 190.3,29.6 190.3,44.3 163.8,44.3 163.8,29.6 151.6,29.6 
		151.6,71.2 163.8,71.2 163.8,54.4 190.3,54.4 	"/>
	<path class="st0" d="M217.9,66.8c2.5,1.8,5.4,3.2,8.9,4.1c3.4,0.9,7.3,1.4,11.6,1.4c4.3,0,8.1-0.5,11.6-1.4
		c3.4-0.9,6.4-2.3,8.8-4.1c2.4-1.8,4.3-4.1,5.7-6.9c1.3-2.7,2-5.9,2-9.5c0-3.5-0.7-6.7-2-9.5c-1.3-2.7-3.2-5.1-5.7-6.9
		c-2.4-1.8-5.4-3.2-8.8-4.1c-3.4-0.9-7.3-1.4-11.6-1.4c-4.2,0-8.1,0.5-11.6,1.4c-3.5,0.9-6.5,2.3-8.9,4.1c-2.5,1.8-4.4,4.2-5.7,6.9
		c-1.3,2.7-2,5.9-2,9.5c0,3.5,0.7,6.7,2,9.5C213.5,62.6,215.4,65,217.9,66.8 M232.7,39c1.6-0.3,3.5-0.5,5.7-0.5
		c3.2,0,5.9,0.4,7.9,1.1c2,0.7,3.6,1.6,4.8,2.8c1.1,1.1,2,2.4,2.4,3.8c0.5,1.4,0.7,2.9,0.7,4.3c0,1.4-0.2,2.9-0.7,4.3
		c-0.5,1.4-1.3,2.7-2.4,3.8c-1.2,1.1-2.8,2.1-4.8,2.8c-2,0.7-4.7,1.1-7.9,1.1c-2.1,0-4.1-0.2-5.7-0.5c-1.6-0.3-3-0.8-4.2-1.4
		c-1.2-0.6-2.1-1.2-2.9-2c-0.8-0.8-1.4-1.6-1.9-2.5c-0.5-0.9-0.8-1.8-1-2.8c-0.2-1-0.3-2-0.3-2.9c0-0.9,0.1-1.9,0.3-2.9
		c0.2-1,0.5-1.9,1-2.8c0.5-0.9,1.1-1.7,1.9-2.5c0.8-0.8,1.7-1.4,2.9-2C229.7,39.8,231.1,39.3,232.7,39"/>
	<path class="st0" d="M281.2,66.9c2.5,1.8,5.6,3.2,9.1,4.1c3.5,0.9,7.4,1.3,11.5,1.3c1.9,0,3.8-0.1,5.5-0.3c1.7-0.2,3.4-0.4,4.9-0.8
		c1.5-0.3,3.1-0.8,4.5-1.2c1.4-0.5,2.9-1,4.3-1.6l0.4-0.2l1.6-12.1l-2.5,1.3c-1.1,0.6-2.3,1.2-3.5,1.8c-1.2,0.6-2.6,1.1-4,1.6
		c-1.5,0.5-3.1,0.8-4.8,1.1c-1.7,0.3-3.7,0.4-5.9,0.4c-2.3,0-4.3-0.2-6-0.5c-1.7-0.3-3.2-0.8-4.5-1.3c-1.2-0.5-2.3-1.2-3.1-1.9
		c-0.8-0.7-1.5-1.6-2-2.4c-0.5-0.9-0.9-1.8-1.1-2.8c-0.2-1-0.3-2-0.3-3.1c0-1.5,0.3-3.1,0.8-4.5c0.5-1.4,1.4-2.7,2.7-3.8
		c1.3-1.1,3-2,5.2-2.7c2.2-0.7,5-1,8.4-1c2.2,0,4.2,0.1,5.9,0.5c1.7,0.3,3.4,0.7,4.8,1.2c1.5,0.5,2.8,1,4,1.6
		c1.2,0.6,2.4,1.2,3.5,1.8l2.5,1.3l-1.6-12.1l-0.4-0.1c-1.4-0.6-2.9-1.1-4.3-1.6c-1.4-0.5-3-0.9-4.5-1.2c-1.5-0.3-3.2-0.6-4.9-0.8
		c-1.7-0.2-3.6-0.3-5.5-0.3c-4.2,0-8,0.5-11.5,1.3c-3.5,0.9-6.6,2.3-9.1,4.1c-2.6,1.8-4.6,4.1-6,6.9c-1.4,2.7-2.2,6-2.2,9.6
		c0,3.6,0.7,6.9,2.2,9.6C276.6,62.8,278.6,65.1,281.2,66.9"/>
	<polygon class="st0" points="343.2,55 365.1,71.1 365.3,71.2 383.3,71.2 353.4,49.6 381.5,29.6 364.8,29.6 343.2,44.5 343.2,29.6 
		331,29.6 331,71.2 343.2,71.2 	"/>
	<polygon class="st0" points="431.5,61.4 400.2,61.4 400.2,54.7 428.3,54.7 428.3,44.9 400.2,44.9 400.2,39.4 431.1,39.4 
		429.9,29.6 387.7,29.6 387.7,71.2 430.3,71.2 	"/>
	<polygon class="st0" points="454.7,71.2 466.8,71.2 466.8,54.3 487,29.6 473.2,29.6 460.7,45.5 448.2,29.6 434.4,29.6 454.7,54.3 	
		"/>
</g>
<g id="Slovakia">
	<path class="st1" d="M193,108c-1.1-0.9-2.3-1.8-3.7-2.5c-1.4-0.7-2.8-1.3-4.4-1.8c-1.5-0.5-3.1-1-4.8-1.4c-1.6-0.4-3.2-0.7-4.7-1.1
		c-1.5-0.3-3-0.6-4.3-0.9c-1.3-0.3-2.5-0.6-3.5-1c-1-0.3-1.7-0.7-2.2-1.1c-0.4-0.3-0.6-0.7-0.6-1.1c0-0.1,0-0.3,0.1-0.4
		c0-0.1,0.1-0.2,0.3-0.4c0.2-0.2,0.5-0.3,0.9-0.5c0.4-0.2,1-0.4,1.7-0.5c0.7-0.1,1.6-0.3,2.7-0.4c1.1-0.1,2.4-0.1,4-0.1
		c1.9,0,3.8,0.1,5.6,0.4c1.8,0.3,3.6,0.6,5.1,1c1.6,0.4,3,0.9,4.2,1.3c1.2,0.5,2.2,0.9,3,1.2l2.1,1l-1.2-11.4l-0.4-0.1
		c-1.3-0.4-2.7-0.8-4.2-1.2c-1.5-0.4-3.1-0.7-4.7-1c-1.6-0.3-3.3-0.5-5-0.7c-1.7-0.2-3.3-0.2-4.9-0.2c-1.4,0-3,0.1-4.6,0.2
		c-1.6,0.1-3.2,0.3-4.8,0.7c-1.6,0.3-3.1,0.8-4.5,1.4c-1.5,0.6-2.8,1.4-3.9,2.3c-1.1,1-2,2.1-2.7,3.5c-0.7,1.4-1,3-1,4.9
		c0,1.6,0.3,3,0.9,4.3c0.6,1.2,1.5,2.3,2.6,3.2c1.1,0.9,2.3,1.7,3.7,2.4c1.4,0.6,2.8,1.2,4.4,1.7c1.5,0.5,3.1,0.9,4.7,1.3
		c1.6,0.4,3.2,0.7,4.7,1c1.5,0.3,3,0.6,4.3,0.9c1.3,0.3,2.5,0.6,3.5,1c0.9,0.3,1.7,0.7,2.2,1.2c0.4,0.4,0.7,0.8,0.7,1.2
		c0,0.3-0.1,0.6-0.3,1c-0.2,0.3-0.7,0.7-1.4,1c-0.8,0.4-1.9,0.7-3.3,0.9c-1.4,0.2-3.3,0.4-5.6,0.4c-3.9,0-7.5-0.4-10.9-1.2
		c-3.4-0.8-6.4-2-9-3.4l-2.1-1.1l1.2,11.7l0.4,0.1c2.6,1,5.7,1.8,9.1,2.5c3.4,0.7,7.2,1,11.2,1c1.5,0,3.2-0.1,4.9-0.1
		c1.7-0.1,3.4-0.3,5.1-0.6c1.7-0.3,3.3-0.8,4.9-1.4c1.6-0.6,3-1.4,4.2-2.4c1.2-1,2.2-2.3,2.9-3.7c0.7-1.5,1.1-3.2,1.1-5.3
		c0-1.6-0.3-3-0.9-4.3C195,110.1,194.1,109,193,108"/>
	<polygon class="st1" points="219.2,86.4 207.1,86.4 207.1,128.1 247.4,128.1 248.7,118 219.2,118 	"/>
	<path class="st1" d="M299.4,91c-2.4-1.8-5.4-3.2-8.8-4.1c-3.4-0.9-7.3-1.4-11.6-1.4c-4.3,0-8.1,0.5-11.6,1.4
		c-3.5,0.9-6.5,2.3-8.9,4.1c-2.5,1.8-4.4,4.1-5.7,6.9c-1.3,2.7-2,5.9-2,9.5s0.7,6.7,2,9.5c1.3,2.7,3.3,5,5.7,6.9
		c2.4,1.8,5.4,3.2,8.9,4.1c3.4,0.9,7.3,1.4,11.6,1.4c4.3,0,8.1-0.5,11.6-1.4c3.4-0.9,6.4-2.3,8.8-4.1c2.4-1.8,4.3-4.1,5.7-6.9
		c1.3-2.7,2-5.9,2-9.5c0-3.5-0.7-6.7-2-9.5C303.8,95.1,301.9,92.8,299.4,91 M279,119.3c-2.1,0-4.1-0.2-5.7-0.5
		c-1.6-0.3-3-0.8-4.2-1.4c-1.2-0.6-2.1-1.2-2.9-2c-0.8-0.8-1.4-1.6-1.9-2.5c-0.5-0.9-0.8-1.8-1-2.8c-0.2-1-0.3-2-0.3-2.9
		c0-0.9,0.1-1.9,0.3-2.9c0.2-1,0.5-1.9,1-2.8c0.5-0.9,1.1-1.7,1.9-2.5c0.8-0.8,1.8-1.4,2.9-2c1.2-0.6,2.6-1,4.2-1.4
		c1.6-0.3,3.5-0.5,5.7-0.5c3.2,0,5.8,0.4,7.9,1.1c2,0.7,3.6,1.7,4.8,2.8c1.2,1.1,2,2.4,2.4,3.8c0.5,1.4,0.7,2.9,0.7,4.3
		c0,1.4-0.2,2.9-0.7,4.3c-0.4,1.4-1.3,2.7-2.4,3.8c-1.2,1.1-2.8,2.1-4.8,2.8C284.9,118.9,282.2,119.3,279,119.3"/>
	<polygon class="st1" points="349.1,86.4 334.8,116.1 320.5,86.4 307,86.4 328,128.1 341.5,128.1 362.7,86.4 	"/>
	<path class="st1" d="M377.8,86.4L356,128.1h13.6l3.8-7.6h21.8l3.8,7.6h13.6l-21.8-41.6H377.8z M390.7,111.3h-12.8l6.4-12.9
		L390.7,111.3z"/>
	<polygon class="st1" points="469.4,86.4 452.7,86.4 431.1,101.3 431.1,86.4 418.9,86.4 418.9,128.1 431.1,128.1 431.1,111.9 
		453.1,128 453.2,128.1 471.2,128.1 441.3,106.4 	"/>
	<rect x="477.3" y="86.5" class="st1" width="12.1" height="41.6"/>
	<path class="st1" d="M531.3,86.4h-12.9l-21.8,41.6h13.6l3.8-7.6h21.8l3.8,7.6h13.6L531.3,86.4z M531.3,111.3h-12.8l6.4-12.9
		L531.3,111.3z"/>
</g>
<g id="Coat">
	<polygon class="st2" points="65.3,155.2 17.4,131 17.4,24.3 26,24.3 116.9,24.3 116.9,62 120.5,121.7 120.5,133.5 	"/>
	<path class="st2" d="M119,135.9l-46.5,20.3c-2.1,0.9-4.6,0.9-6.7,0l-46.5-20.3c-3.1-1.3-5-4.4-5-7.7V24.4c0-4.6,3.8-8.4,8.4-8.4
		h93.1c4.6,0,8.4,3.8,8.4,8.4v103.7C124.1,131.5,122.1,134.5,119,135.9"/>
	<path class="st3" d="M69.1,157.9c-1.3,0-2.6-0.3-3.8-0.8l-46.5-20.3c-3.5-1.5-5.7-4.9-5.7-8.7V24.4c0-5.2,4.3-9.5,9.5-9.5h93.1
		c5.2,0,9.5,4.3,9.5,9.5v103.7c0,3.8-2.2,7.2-5.7,8.7l-46.5,20.3C71.7,157.7,70.4,157.9,69.1,157.9 M22.6,17.1c-4,0-7.3,3.3-7.3,7.3
		v103.7c0,2.9,1.7,5.6,4.4,6.7l46.5,20.3c1.9,0.8,4,0.8,5.9,0l46.5-20.3c2.7-1.2,4.4-3.8,4.4-6.7V24.4c0-4-3.3-7.3-7.3-7.3H22.6z"/>
	<path class="st0" d="M116.8,130.4l-46.4,20.2c-0.8,0.4-1.7,0.3-2.5,0l-46.4-20.2c-1.2-0.5-1.9-1.6-1.9-2.9V24.7
		c0-1.7,1.4-3.2,3.2-3.2h92.8c1.7,0,3.2,1.4,3.2,3.2v102.9C118.7,128.8,117.9,129.9,116.8,130.4"/>
	<path class="st1" d="M118.7,127.5v-7.7l-9.5-5.8v-8.3L88.9,93.2l-34.3,21.3l-22.8-14.1L19.6,108l0,19.6c0,1.3,0.7,2.4,1.9,2.9
		l47.7,20.8l47.6-20.8C117.9,129.9,118.7,128.8,118.7,127.5"/>
	<polygon class="st2" points="69.1,78.2 102.6,78.2 102.6,66.6 75.5,66.6 75.5,58.8 69.1,54.9 96.6,54.9 96.6,43.3 75.5,43.3 
		75.5,27.4 63.1,35.1 63.1,43.3 41.7,43.3 41.7,55 63.1,55 63.1,66.6 35.6,66.6 35.6,78.2 63.1,78.2 63.1,98.7 75.5,91 75.5,82.1 	
		"/>
	<polygon class="st2" points="88.9,93.2 63.6,108.9 63.6,149.7 69.1,152.1 69.1,118.7 88.9,106.4 	"/>
	<polygon class="st2" points="102.2,109.7 78.1,124.7 78.1,150.7 83.6,148.3 83.6,134.5 102.2,123 	"/>
	<polygon class="st2" points="31.8,100.4 54.6,114.5 54.6,146.3 49.1,143.9 49.1,124.3 31.8,113.6 	"/>
</g>
</svg>
